<svg width="47" height="10" viewBox="0 0 47 10" fill="none" xmlns="http://www.w3.org/2000/svg">
<path d="M0.816 6.396C0.632 5.884 0.54 5.352 0.54 4.8C0.54 4.248 0.632 3.716 0.816 3.204C1.008 2.692 1.28 2.232 1.632 1.824C1.984 1.408 2.444 1.076 3.012 0.827999C3.58 0.58 4.22 0.456 4.932 0.456C5.644 0.456 6.284 0.58 6.852 0.827999C7.42 1.076 7.88 1.408 8.232 1.824C8.584 2.232 8.852 2.692 9.036 3.204C9.228 3.716 9.324 4.248 9.324 4.8C9.324 5.352 9.228 5.884 9.036 6.396C8.852 6.908 8.584 7.372 8.232 7.788C7.88 8.196 7.42 8.524 6.852 8.772C6.284 9.02 5.644 9.144 4.932 9.144C4.22 9.144 3.58 9.02 3.012 8.772C2.444 8.524 1.984 8.196 1.632 7.788C1.28 7.372 1.008 6.908 0.816 6.396ZM8.088 6.06C8.232 5.66 8.304 5.24 8.304 4.8C8.304 4.36 8.232 3.94 8.088 3.54C7.952 3.14 7.748 2.78 7.476 2.46C7.212 2.14 6.86 1.888 6.42 1.704C5.98 1.512 5.484 1.416 4.932 1.416C4.38 1.416 3.884 1.512 3.444 1.704C3.004 1.888 2.648 2.14 2.376 2.46C2.112 2.78 1.908 3.14 1.764 3.54C1.628 3.94 1.56 4.36 1.56 4.8C1.56 5.24 1.628 5.66 1.764 6.06C1.908 6.46 2.112 6.82 2.376 7.14C2.648 7.46 3.004 7.716 3.444 7.908C3.884 8.092 4.38 8.184 4.932 8.184C5.484 8.184 5.98 8.092 6.42 7.908C6.86 7.716 7.212 7.46 7.476 7.14C7.748 6.82 7.952 6.46 8.088 6.06ZM18.7366 9H10.6966V3.24H11.6566V8.112H14.2366V3.24H15.1966V8.112H17.7766V3.24H18.7366V9ZM21.3329 9H20.5169V3.24H21.4769V7.452L25.0049 3.24H25.8209V9H24.8609V4.788L21.3329 9ZM33.223 6.288C33.223 7.176 32.951 7.876 32.407 8.388C31.871 8.892 31.163 9.144 30.283 9.144C29.387 9.144 28.663 8.848 28.111 8.256C27.567 7.664 27.295 6.836 27.295 5.772C27.295 4.844 27.455 4.044 27.775 3.372C28.095 2.7 28.527 2.196 29.071 1.86C29.439 1.636 29.819 1.46 30.211 1.332C30.611 1.196 30.939 1.112 31.195 1.08C31.459 1.048 31.731 0.983999 32.011 0.887999C32.291 0.784 32.523 0.64 32.707 0.456V1.464C32.483 1.624 32.207 1.744 31.879 1.824C31.551 1.896 31.187 1.984 30.787 2.088C30.387 2.192 30.003 2.352 29.635 2.568C29.275 2.784 28.995 3.056 28.795 3.384C28.595 3.712 28.419 4.104 28.267 4.56C28.475 4.24 28.771 3.98 29.155 3.78C29.539 3.58 29.951 3.48 30.391 3.48C31.167 3.48 31.831 3.74 32.383 4.26C32.943 4.78 33.223 5.456 33.223 6.288ZM28.255 6.312C28.255 6.864 28.439 7.324 28.807 7.692C29.175 8.052 29.659 8.232 30.259 8.232C30.875 8.232 31.363 8.052 31.723 7.692C32.083 7.332 32.263 6.872 32.263 6.312C32.263 5.752 32.083 5.292 31.723 4.932C31.363 4.572 30.875 4.392 30.259 4.392C29.683 4.392 29.203 4.588 28.819 4.98C28.443 5.364 28.255 5.808 28.255 6.312ZM35.5746 9H34.6146V3.24H35.5746V5.64H36.7386L38.5626 3.24H39.6786L37.4946 6.108L39.9426 9H38.8146L36.7026 6.528H35.5746V9ZM45.5289 7.8C45.5289 8.096 45.6769 8.244 45.9729 8.244C46.1009 8.244 46.2489 8.216 46.4169 8.16V8.94C46.1769 9.028 45.9369 9.072 45.6969 9.072C45.1449 9.072 44.7929 8.84 44.6409 8.376C44.0249 8.888 43.2769 9.144 42.3969 9.144C41.8369 9.144 41.3569 8.996 40.9569 8.7C40.5649 8.396 40.3689 7.96 40.3689 7.392C40.3689 6.712 40.6209 6.22 41.1249 5.916C41.6369 5.604 42.2529 5.448 42.9729 5.448C43.5009 5.448 44.0329 5.508 44.5689 5.628V5.424C44.5689 4.984 44.4249 4.636 44.1369 4.38C43.8489 4.116 43.4449 3.984 42.9249 3.984C42.1969 3.984 41.4969 4.128 40.8249 4.416V3.48C41.5769 3.224 42.3089 3.096 43.0209 3.096C43.8049 3.096 44.4169 3.308 44.8569 3.732C45.3049 4.148 45.5289 4.752 45.5289 5.544V7.8ZM41.3529 7.344C41.3529 7.664 41.4729 7.908 41.7129 8.076C41.9609 8.236 42.2569 8.316 42.6009 8.316C43.3929 8.316 44.0489 8.036 44.5689 7.476V6.42C44.0249 6.308 43.5369 6.252 43.1049 6.252C42.6169 6.252 42.2009 6.34 41.8569 6.516C41.5209 6.684 41.3529 6.96 41.3529 7.344Z" fill="#D52B1E"/>
</svg>
